<svg width="46" height="46" viewBox="0 0 46 46" fill="none" xmlns="http://www.w3.org/2000/svg">
<path d="M23.5347 3.19992C23.1915 3.06237 22.8085 3.06237 22.4653 3.19992L5.30725 10.0625L12.2188 12.8254L29.9115 5.75005L23.5347 3.19992ZM33.7812 7.29967L16.0885 14.375L23 17.1379L40.6927 10.0625L33.7812 7.29967ZM43.125 12.1872L24.4375 19.6622V42.4379L43.125 34.9629V12.19V12.1872ZM21.5625 42.4408V19.6593L2.875 12.1872V34.9658L21.5625 42.4408ZM21.3986 0.529049C22.4266 0.117921 23.5734 0.117921 24.6014 0.529049L45.0972 8.72855C45.3637 8.83534 45.5921 9.01948 45.753 9.25723C45.9139 9.49499 45.9999 9.77547 46 10.0625V34.9658C45.9996 35.5403 45.8272 36.1015 45.5048 36.577C45.1825 37.0526 44.7251 37.4207 44.1916 37.6338L23.5347 45.8965C23.1915 46.0341 22.8085 46.0341 22.4653 45.8965L1.81125 37.6338C1.27722 37.4211 0.819209 37.0532 0.496346 36.5776C0.173482 36.1021 0.000593197 35.5406 0 34.9658L0 10.0625C6.68148e-05 9.77547 0.0860883 9.49499 0.246983 9.25723C0.407877 9.01948 0.636274 8.83534 0.90275 8.72855L21.3986 0.529049Z" fill="#302E2F"/>
</svg>
