<svg width="52" height="52" viewBox="0 0 52 52" fill="none" xmlns="http://www.w3.org/2000/svg">
<path d="M48.6924 24.9745L27.0258 3.30785C26.7551 3.03882 26.389 2.88782 26.0074 2.88782C25.6258 2.88782 25.2597 3.03882 24.9891 3.30785L3.32242 24.9745C3.08579 25.2508 2.96213 25.6063 2.97617 25.9698C2.99022 26.3333 3.14092 26.6782 3.39817 26.9354C3.65541 27.1927 4.00026 27.3434 4.36379 27.3574C4.72732 27.3715 5.08277 27.2478 5.35909 27.0112L26.0002 6.37007L46.6413 27.0256C46.9176 27.2623 47.2731 27.3859 47.6366 27.3719C48.0001 27.3578 48.345 27.2071 48.6022 26.9499C48.8595 26.6926 49.0102 26.3478 49.0242 25.9843C49.0383 25.6207 48.9146 25.2653 48.678 24.989L48.6924 24.9745Z" fill="#302E2F"/>
<path d="M40.4443 46.2222H33.2221V31.7778H18.7776V46.2222H11.5554V26L8.6665 28.8889V46.2222C8.6665 46.9884 8.97087 47.7232 9.51264 48.265C10.0544 48.8067 10.7892 49.1111 11.5554 49.1111H21.6665V34.6667H30.3332V49.1111H40.4443C41.2105 49.1111 41.9453 48.8067 42.487 48.265C43.0288 47.7232 43.3332 46.9884 43.3332 46.2222V28.5422L40.4443 25.6533V46.2222Z" fill="#302E2F"/>
</svg>
