<svg width="63" height="64" viewBox="0 0 63 64" fill="none" xmlns="http://www.w3.org/2000/svg">
<path d="M31.3731 3.09161L32.8539 1.61077C32.6596 1.41599 32.4288 1.26145 32.1747 1.15601C31.9206 1.05057 31.6482 0.996292 31.3731 0.996292C31.098 0.996292 30.8256 1.05057 30.5714 1.15601C30.3173 1.26145 30.0865 1.41599 29.8922 1.61077L31.3731 3.09161ZM6.27419 28.1905L4.79336 26.7097L4.18262 27.3246V28.1905H6.27419ZM56.472 28.1905H58.5635V27.3246L57.9528 26.7097L56.472 28.1905ZM57.9528 26.7097L32.8539 1.61077L29.8922 4.57244L54.9911 29.6713L57.9528 26.7097ZM29.8922 1.61077L4.79336 26.7097L7.75503 29.6713L32.8539 4.57244L29.8922 1.61077ZM58.5635 57.4725V28.1905H54.3804V57.4725H58.5635ZM4.18262 28.1905V57.4725H8.36577V28.1905H4.18262ZM10.4573 63.7473H52.2888V59.5641H10.4573V63.7473ZM54.3804 57.4725C54.3804 58.0273 54.16 58.5593 53.7678 58.9515C53.3755 59.3437 52.8435 59.5641 52.2888 59.5641V63.7473C53.953 63.7473 55.549 63.0862 56.7257 61.9094C57.9025 60.7327 58.5635 59.1367 58.5635 57.4725H54.3804ZM4.18262 57.4725C4.18262 59.1367 4.8437 60.7327 6.02044 61.9094C7.19718 63.0862 8.79318 63.7473 10.4573 63.7473V59.5641C9.90262 59.5641 9.37062 59.3437 8.97837 58.9515C8.58613 58.5593 8.36577 58.0273 8.36577 57.4725H4.18262Z" fill="#302E2F"/>
<path d="M44.7112 32.17C44.2935 31.203 43.6913 30.3267 42.9383 29.5902C42.1847 28.8515 41.2962 28.2644 40.3211 27.8609C39.3099 27.4409 38.2254 27.2259 37.1305 27.2284C35.5944 27.2284 34.0958 27.6491 32.7934 28.4436C32.4818 28.6337 32.1858 28.8424 31.9054 29.0699C31.625 28.8424 31.329 28.6337 31.0174 28.4436C29.715 27.6491 28.2163 27.2284 26.6803 27.2284C25.5742 27.2284 24.5023 27.4403 23.4897 27.8609C22.5114 28.266 21.6296 28.8486 20.8725 29.5902C20.1185 30.3259 19.5161 31.2024 19.0996 32.17C18.6665 33.1764 18.4453 34.2451 18.4453 35.345C18.4453 36.3825 18.6572 37.4637 19.0778 38.5636C19.4299 39.4827 19.9346 40.4361 20.5796 41.3989C21.6016 42.9225 23.0068 44.5116 24.7516 46.1224C27.643 48.7926 30.5064 50.6371 30.6279 50.7119L31.3664 51.1855C31.6935 51.3943 32.1141 51.3943 32.4413 51.1855L33.1797 50.7119C33.3012 50.634 36.1615 48.7926 39.0561 46.1224C40.8009 44.5116 42.2061 42.9225 43.2281 41.3989C43.873 40.4361 44.3809 39.4827 44.7299 38.5636C45.1505 37.4637 45.3624 36.3825 45.3624 35.345C45.3655 34.2451 45.1442 33.1764 44.7112 32.17Z" fill="#302E2F"/>
</svg>
