<svg width="55" height="55" viewBox="0 0 55 55" fill="none" xmlns="http://www.w3.org/2000/svg">
<path fill-rule="evenodd" clip-rule="evenodd" d="M7.8835 14.6667C7.8835 13.7759 8.05895 12.8938 8.39985 12.0708C8.74074 11.2478 9.2404 10.5001 9.87029 9.87017C10.5002 9.24028 11.248 8.74062 12.071 8.39972C12.894 8.05883 13.776 7.88337 14.6668 7.88337C15.5576 7.88337 16.4397 8.05883 17.2627 8.39972C18.0857 8.74062 18.8335 9.24028 19.4634 9.87017C20.0933 10.5001 20.5929 11.2478 20.9338 12.0708C21.2747 12.8938 21.4502 13.7759 21.4502 14.6667C21.4502 16.4658 20.7355 18.1911 19.4634 19.4632C18.1912 20.7354 16.4659 21.45 14.6668 21.45C12.8678 21.45 11.1424 20.7354 9.87029 19.4632C8.59817 18.1911 7.8835 16.4658 7.8835 14.6667ZM14.6668 4.58337C11.9926 4.58337 9.42783 5.64572 7.53684 7.53671C5.64584 9.42771 4.5835 11.9924 4.5835 14.6667C4.5835 17.341 5.64584 19.9057 7.53684 21.7967C9.42783 23.6877 11.9926 24.75 14.6668 24.75C17.3411 24.75 19.9058 23.6877 21.7968 21.7967C23.6878 19.9057 24.7502 17.341 24.7502 14.6667C24.7502 11.9924 23.6878 9.42771 21.7968 7.53671C19.9058 5.64572 17.3411 4.58337 14.6668 4.58337ZM21.3402 40.3334L9.16683 47.069V33.5977L21.3402 40.3334ZM9.68016 30.1107C9.28953 29.8945 8.84925 29.7839 8.40281 29.7899C7.95637 29.7958 7.51921 29.9182 7.13451 30.1448C6.7498 30.3714 6.43087 30.6944 6.20919 31.082C5.98752 31.4695 5.87077 31.9082 5.8705 32.3547V48.312C5.87014 48.7588 5.98641 49.198 6.20783 49.586C6.42924 49.9741 6.74812 50.2977 7.13293 50.5247C7.51774 50.7517 7.95515 50.8744 8.4019 50.8805C8.84865 50.8867 9.28926 50.7761 9.68016 50.5597L24.1012 42.581C24.5023 42.3591 24.8367 42.0337 25.0696 41.6388C25.3024 41.2438 25.4252 40.7937 25.4252 40.3352C25.4252 39.8767 25.3024 39.4266 25.0696 39.0317C24.8367 38.6367 24.5023 38.3113 24.1012 38.0894L9.68016 30.1107ZM30.4335 33C30.4335 32.3193 30.7039 31.6665 31.1853 31.1851C31.6666 30.7038 32.3194 30.4334 33.0002 30.4334H47.6668C48.3475 30.4334 49.0004 30.7038 49.4817 31.1851C49.9631 31.6665 50.2335 32.3193 50.2335 33V47.6667C50.2335 48.3474 49.9631 49.0003 49.4817 49.4816C49.0004 49.963 48.3475 50.2334 47.6668 50.2334H33.0002C32.3194 50.2334 31.6666 49.963 31.1853 49.4816C30.7039 49.0003 30.4335 48.3474 30.4335 47.6667V33ZM33.7335 33.7334V46.9334H46.9335V33.7334H33.7335ZM49.2912 8.04104C49.5826 7.72826 49.7413 7.31455 49.7337 6.88709C49.7262 6.45963 49.553 6.05178 49.2507 5.74947C48.9484 5.44716 48.5406 5.274 48.1131 5.26646C47.6856 5.25891 47.2719 5.41758 46.9592 5.70904L40.3335 12.3347L33.7078 5.70904C33.5568 5.54693 33.3746 5.4169 33.1722 5.32672C32.9698 5.23654 32.7513 5.18805 32.5298 5.18414C32.3082 5.18023 32.0882 5.22098 31.8827 5.30397C31.6773 5.38696 31.4906 5.51047 31.3339 5.66716C31.1773 5.82384 31.0537 6.01047 30.9708 6.21593C30.8878 6.42138 30.847 6.64144 30.8509 6.86299C30.8548 7.08454 30.9033 7.30303 30.9935 7.50542C31.0837 7.70782 31.2137 7.88998 31.3758 8.04104L38.0015 14.6667L31.3758 21.2924C31.2137 21.4434 31.0837 21.6256 30.9935 21.828C30.9033 22.0304 30.8548 22.2489 30.8509 22.4704C30.847 22.692 30.8878 22.912 30.9708 23.1175C31.0537 23.3229 31.1773 23.5096 31.3339 23.6663C31.4906 23.8229 31.6773 23.9465 31.8827 24.0294C32.0882 24.1124 32.3082 24.1532 32.5298 24.1493C32.7513 24.1454 32.9698 24.0969 33.1722 24.0067C33.3746 23.9165 33.5568 23.7865 33.7078 23.6244L40.3335 16.9987L46.9592 23.6244C47.2719 23.9158 47.6856 24.0745 48.1131 24.067C48.5406 24.0594 48.9484 23.8863 49.2507 23.5839C49.553 23.2816 49.7262 22.8738 49.7337 22.4463C49.7413 22.0189 49.5826 21.6052 49.2912 21.2924L42.6655 14.6667L49.2912 8.04104Z" fill="#302E2F"/>
</svg>
